
<svg width="100" height="100" viewBox="0 0 100 100" fill="none" xmlns="http://www.w3.org/2000/svg">
<path fill-rule="evenodd" clip-rule="evenodd" d="M46.3065 16.0949C45.7465 16.8217 45.1622 17.5469 45.0085 17.7068C44.8547 17.8664 44.4973 18.2973 44.2143 18.6641C43.9313 19.0309 43.3307 19.7312 42.8796 20.2204C42.4283 20.7095 41.7126 21.5599 41.2891 22.1101C40.8656 22.6604 40.465 23.1606 40.3989 23.2217C40.3328 23.2829 39.8307 23.8831 39.2829 24.5557C38.7351 25.2282 38.233 25.8285 38.1669 25.8896C38.1008 25.9507 37.7013 26.451 37.2789 27.0012C36.8565 27.5515 36.457 28.0517 36.3909 28.1128C36.3248 28.174 35.8231 28.7743 35.2758 29.4468C34.7287 30.1193 34.1271 30.8196 33.9389 31.003C33.7507 31.1865 33.1491 31.8868 32.602 32.5593C32.0547 33.2318 31.553 33.8321 31.4869 33.8932C31.4208 33.9544 31.0213 34.4546 30.5989 35.0049C30.1765 35.5551 29.777 36.0553 29.7109 36.1165C29.6448 36.1776 29.1427 36.7779 28.5949 37.4504C28.0471 38.1229 27.545 38.7232 27.4789 38.7844C27.4128 38.8455 27.0126 39.3457 26.5896 39.896C26.1665 40.4462 25.564 41.1465 25.2507 41.4522C24.9374 41.7579 24.4391 42.3582 24.1436 42.7862C23.8479 43.2141 23.4491 43.7144 23.2574 43.8978C23.0657 44.0812 22.4611 44.7815 21.914 45.4541C21.3667 46.1266 20.865 46.7269 20.7989 46.788C20.7328 46.8491 20.3309 47.3494 19.9058 47.8996C19.4807 48.4499 18.9025 49.1344 18.6208 49.4207C17.7557 50.3005 16.9575 51.6502 17.0933 52.0035C17.2031 52.2892 18.1245 52.3476 23.2981 52.3981L29.3742 52.4572L29.3284 53.3465C29.2642 54.5884 28.9033 56.9371 28.5938 58.1265C28.4506 58.6767 28.2444 59.7772 28.136 60.572C27.6929 63.8171 27.5056 64.9551 27.2589 65.9078C27.0133 66.8556 26.881 67.6353 26.3912 71.0212C26.2763 71.816 26.065 72.9165 25.9218 73.4668C25.7786 74.017 25.5724 75.1175 25.464 75.9123C25.0187 79.1729 24.8334 80.2963 24.5838 81.2481C23.8481 84.0529 24.4729 84.6007 26.1059 82.582C27.4451 80.9266 28.6659 79.4769 30.225 77.6909C30.4918 77.3852 31.0583 76.6849 31.4838 76.1347C31.9093 75.5844 32.3114 75.0842 32.3776 75.0231C32.4437 74.9619 32.9471 74.3616 33.4967 73.6891C34.046 73.0166 34.6797 72.2662 34.9048 72.0217C35.1299 71.7771 35.9064 70.7956 36.6305 69.8403C37.9469 68.1037 37.9469 68.1037 37.9478 65.2826C37.9485 62.8004 38.0052 62.3689 38.4209 61.6881C39.5249 59.8797 41.585 58.5487 44.9789 57.4504C47.8854 56.51 47.9981 56.4522 48.5806 55.6033C48.8551 55.2034 49.2552 54.682 49.4697 54.4448C49.6841 54.2076 50.3091 53.4633 50.8584 52.7907C51.408 52.1182 51.9114 51.5179 51.9775 51.4568C52.0437 51.3956 52.4458 50.8954 52.8713 50.3452C53.2968 49.7949 53.8633 49.0946 54.1301 48.7889C54.397 48.4832 54.8263 47.9885 55.0844 47.6897C55.3425 47.3907 55.5235 46.9905 55.487 46.8004C55.4289 46.4994 54.6411 46.4467 49.4187 46.3952C46.1179 46.3627 43.3497 46.2626 43.2675 46.1728C43.0301 45.914 43.7215 40.4169 44.1827 38.8955C44.331 38.4064 44.5436 37.3059 44.6552 36.45C45.1107 32.9521 45.2682 31.957 45.5164 31.003C45.7629 30.0555 45.8948 29.2798 46.3853 25.8896C46.5002 25.0948 46.7115 23.9943 46.8547 23.444C46.9978 22.8938 47.2047 21.7933 47.3142 20.9985C47.803 17.4502 47.9564 16.3873 48.0927 15.6071C48.2218 14.8675 48.1867 14.7734 47.7816 14.7734C47.4866 14.7734 46.9644 15.2412 46.3065 16.0949ZM66.6709 44.7588C66.4872 44.864 65.9267 45.0121 65.4255 45.0879C62.3963 45.5463 58.8775 48.3716 58.8775 50.3452C58.8775 51.8908 60.7755 53.9793 62.9969 54.8779C67.7205 56.7889 73.324 56.8256 78.1382 55.1854C79.3853 54.7603 81.5434 53.1716 82.0175 52.3292C82.6685 51.1727 82.6534 49.2958 81.9858 48.4299C80.8088 46.9032 78.5394 45.5983 75.9115 44.9376C74.7788 44.6528 67.1157 44.5045 66.6709 44.7588ZM59.026 55.6069C58.9443 55.6883 58.8775 56.0295 58.8775 56.3652C58.8775 56.9873 59.9461 58.1265 60.5297 58.1265C60.6847 58.1265 61.5342 58.6329 62.417 59.2521C63.5375 60.0378 64.2661 60.7597 64.8294 61.6421C65.2734 62.3375 65.7942 63.0305 65.9868 63.1821C66.4451 63.5429 75.4034 63.4331 77.0754 63.0463C78.2025 62.7855 80.6596 61.5496 81.2085 60.9673C82.1829 59.934 82.9255 58.0547 82.9255 56.622C82.9255 55.4882 82.4853 55.196 81.6102 55.7494C80.2096 56.6347 77.7712 57.6165 76.1342 57.9542C74.3816 58.3155 68.1153 58.4222 66.3369 58.1207C64.5419 57.8166 62.3836 57.0395 60.743 56.1069C59.5645 55.4368 59.2792 55.3539 59.026 55.6069ZM48.3009 58.8295C47.811 58.9435 47.1096 59.086 46.7422 59.1465C43.5759 59.6672 40.6857 61.6803 39.9645 63.868C39.4054 65.5636 40.9043 67.6208 43.6249 68.8918C47.1626 70.5444 50.7869 70.9208 55.8715 70.1635C60.6762 69.4481 64.2698 66.4251 63.468 63.7735C62.8771 61.8197 59.8297 59.7761 56.5395 59.1276C56.1721 59.0551 55.4707 58.9046 54.9809 58.7932C53.8439 58.5344 49.467 58.5582 48.3009 58.8295ZM80.926 63.5827C80.2548 64.0096 79.353 64.4651 78.922 64.595C75.4682 65.6357 70.4842 66.1512 68.1353 65.711C66.2469 65.3573 66.0029 65.621 66.0029 68.0156C66.0029 70.6199 66.1687 70.7469 69.796 70.917C72.4555 71.0415 74.1638 70.8741 77.2698 70.1842C79.6777 69.6495 81.9424 67.8251 82.5677 65.9162C83.0368 64.484 83.0395 63.1087 82.5732 62.9302C82.1359 62.7626 82.3468 62.679 80.926 63.5827ZM62.1389 70.0417C60.9666 70.8371 59.5616 71.4319 57.5658 71.9779C54.1185 72.9211 49.404 72.9427 45.9629 71.969C43.1145 71.1633 42.8981 71.0786 41.8498 70.3585C41.2651 69.9568 40.6187 69.688 40.3348 69.7282C39.9021 69.7896 39.8429 69.9247 39.8656 70.7989C39.9449 73.8581 41.7304 75.8979 45.3457 77.0595C48.858 78.1879 54.3411 78.2483 57.8755 77.1736C61.9577 75.9321 63.7762 74.0442 63.7762 71.0475C63.7762 69.8563 63.5918 69.465 63.0303 69.465C63.0075 69.465 62.6065 69.7244 62.1389 70.0417ZM80.9838 70.8151C78.2036 72.4408 76.2181 72.8369 70.5608 72.8945C68.3527 72.9172 66.4239 73.011 66.2745 73.1031C66.0935 73.2147 66.0029 73.935 66.0029 75.2618C66.0029 77.2527 66.0029 77.2527 66.7265 77.6934C67.9645 78.4471 74.808 78.2739 77.2475 77.427C77.6149 77.2994 78.3363 77.0464 78.8507 76.8646C79.3651 76.6827 80.3285 76.0188 80.9916 75.3895C82.3089 74.1393 83.0275 72.4786 82.887 71.0095C82.7919 70.0134 82.42 69.9754 80.9838 70.8151ZM39.9954 77.2908C39.6766 77.6091 39.6474 78.5827 39.9355 79.2923C40.0495 79.5731 40.2032 80.0843 40.2771 80.428C40.4423 81.1956 42.0573 82.8451 43.2141 83.4267C43.685 83.6637 44.6881 84.0743 45.4434 84.3393C49.3413 85.707 56.4334 85.5141 60.1202 83.6341C62.3874 82.4782 63.7762 80.4758 63.7762 78.3632C63.7762 76.9817 63.413 76.8408 62.0606 77.6972C61.4865 78.0607 60.8813 78.3579 60.7156 78.3579C60.5498 78.3579 60.0982 78.5211 59.7123 78.7203C56.1632 80.553 49.8131 80.3256 45.9629 79.3988C43.4897 78.8037 41.6224 78.0291 41.0765 77.3721C40.7302 76.9557 40.359 76.9277 39.9954 77.2908Z" fill="white"/>
</svg>
