
<svg width="100" height="100" viewBox="0 0 100 100" fill="none" xmlns="http://www.w3.org/2000/svg">
<path fill-rule="evenodd" clip-rule="evenodd" d="M60.2665 26.2012L53.1891 26.197L53.1848 19.1238C53.1848 17.3693 51.7609 15.9453 50.0063 15.9453C48.2518 15.9453 46.8279 17.3693 46.8279 19.1238L46.8321 26.2054L39.7208 26.2224C37.9663 26.2266 36.5466 27.6548 36.5508 29.4093C36.555 31.1596 37.9747 32.5793 39.7293 32.5793H39.7377L46.8236 32.5624L46.8067 39.6525C46.8024 41.407 48.2222 42.8352 49.9767 42.8395H49.9852C51.7397 42.8395 53.1594 41.4198 53.1636 39.6695L53.1806 32.5539L60.2622 32.5582C62.0168 32.5582 63.4449 31.1342 63.4449 29.3797C63.4449 27.6252 62.021 26.2012 60.2665 26.2012Z" fill="white"/>
<path fill-rule="evenodd" clip-rule="evenodd" d="M25.7899 44.8721C21.664 45.2477 18.3279 46.5259 16.4181 48.4629C15.6947 49.1966 15.2714 49.8899 15.1247 50.5817C14.6833 52.6612 16.0123 54.505 19.0046 55.9644C20.9109 56.8942 22.6666 57.4126 24.8282 57.684C26.1546 57.8506 30.6199 57.8262 31.8071 57.6459C32.8472 57.4879 32.9252 57.4368 33.3734 56.6213C34.3096 54.9178 35.7592 53.3924 37.4179 52.3652C38.3102 51.8126 39.3147 51.295 40.1712 50.9465C40.8697 50.6622 40.9619 50.5989 40.9865 50.3867C41.0539 49.806 39.7044 48.1589 38.5242 47.3814C36.8401 46.2719 34.59 45.488 31.7737 45.0296C30.9318 44.8925 26.7687 44.783 25.7899 44.8721ZM47.1193 53.65C45.1927 53.8219 42.654 54.5135 41.0462 55.3044C39.7945 55.9202 39.1331 56.3777 38.3287 57.1846C36.8924 58.6251 36.575 60.0549 37.3362 61.6561C38.0804 63.2214 40.4195 64.8135 43.224 65.6636C45.3794 66.317 47.3342 66.591 49.8765 66.5961C52.9175 66.6023 55.2818 66.2355 57.6577 65.3889C60.748 64.2877 62.6301 62.6428 63.0338 60.6904C63.18 59.9832 63.0827 59.2397 62.7528 58.5424C62.2651 57.5118 60.7754 56.1921 59.2129 55.4066C57.3715 54.4809 54.7606 53.8118 52.3374 53.6445C50.9922 53.5517 48.1881 53.5546 47.1193 53.65ZM69.2857 53.6468C68.2186 53.73 65.5668 54.2629 65.3691 54.4338C65.3307 54.467 65.5902 54.9245 65.9458 55.4505C66.9728 56.9703 67.4204 58.3503 67.4307 60.0287C67.439 61.3536 67.2334 62.2462 66.5973 63.6488C66.2658 64.3795 66.251 64.4467 66.3548 64.7417C66.5162 65.1999 67.044 66.0486 67.2293 66.1478C67.5246 66.3058 68.9242 66.493 70.466 66.5807C74.3405 66.8012 78.093 66.1495 81.0012 64.7511C82.6971 63.9356 83.8382 62.989 84.542 61.8137C84.848 61.3028 84.848 61.3028 84.848 60.1193C84.848 58.9359 84.848 58.9359 84.542 58.3705C84.0197 57.4054 82.8054 56.3191 81.3946 55.5547C79.6291 54.5982 76.8066 53.8397 74.3015 53.6486C73.0221 53.551 70.5246 53.5501 69.2857 53.6468ZM15.4471 58.3895C14.6658 59.9508 14.9803 61.5348 16.3476 62.9247C17.9397 64.5433 20.5479 65.6749 24.2162 66.3387C25.1995 66.5166 25.5894 66.5367 28.1068 66.5393C30.8294 66.5421 31.0997 66.5233 32.5846 66.2282C33.0406 66.1376 33.0406 66.1376 33.4324 65.3106L33.8242 64.4836L33.5292 63.8517C33.1185 62.972 32.8716 62.3251 32.8716 62.129C32.8716 62.0374 32.8319 61.938 32.7834 61.908C32.735 61.878 32.194 61.9226 31.5813 62.007C29.8578 62.2445 26.3358 62.2228 24.6533 61.9641C20.8189 61.3746 18.0327 60.2138 16.3501 58.505C16.039 58.189 15.7602 57.9305 15.7305 57.9305C15.701 57.9305 15.5734 58.137 15.4471 58.3895ZM37.4575 66.8859C37.2204 67.2477 36.9956 67.9311 36.9338 68.4775C36.8148 69.5288 37.3141 70.734 38.2673 71.6966C39.9996 73.4461 43.0868 74.6881 46.9914 75.2064C48.5055 75.4074 51.3754 75.4055 52.9365 75.2025C59.5585 74.3415 63.6898 71.4546 63.0384 68.1435C62.9387 67.6364 62.7 67.0462 62.4875 66.7811C62.4199 66.6968 62.279 66.7932 61.8979 67.1838C61.6224 67.4662 61.0064 67.9573 60.529 68.2751C58.6088 69.5535 56.6517 70.2467 53.6616 70.7078C51.99 70.9656 48.4491 70.9889 46.7728 70.7532C42.8985 70.2083 40.0106 69.0251 38.2698 67.2692C37.945 66.9415 37.6606 66.6733 37.638 66.6733C37.6154 66.6733 37.5341 66.769 37.4575 66.8859ZM83.9749 66.9856C83.6684 67.3874 82.6016 68.2347 81.8503 68.6729C80.1945 69.6388 77.7026 70.428 75.3366 70.7356C73.8509 70.9288 71.2547 70.9947 69.854 70.8747C69.2049 70.8191 68.4127 70.7509 68.0935 70.7233L67.5133 70.6729L67.4523 72.2796C67.4189 73.1633 67.4046 74.1419 67.4206 74.4545L67.4497 75.0228L68.1929 75.1332C68.6016 75.194 69.9589 75.2673 71.2092 75.2963C73.7296 75.3546 75.1394 75.2442 77.0232 74.8413C80.1014 74.1829 82.7061 72.868 83.9722 71.3335C84.6904 70.4631 84.9164 69.9483 84.9621 69.0791C85.0052 68.2571 84.8428 67.5593 84.4814 67.0131C84.3577 66.8262 84.2467 66.6733 84.2348 66.6733C84.2228 66.6733 84.1059 66.8138 83.9749 66.9856ZM15.471 67.0449C15.1895 67.5029 15.0894 67.9739 15.0845 68.8636C15.0801 69.6626 15.0947 69.7287 15.4223 70.3936C16.1846 71.9409 18.0451 73.2718 20.7657 74.2162C23.0689 75.0155 24.929 75.2761 28.3691 75.2814C29.9875 75.2839 30.9632 75.2468 31.4728 75.1634C32.7413 74.9557 32.6094 75.2367 32.6094 72.742C32.6094 70.5881 32.6094 70.5881 32.3252 70.6377C30.5134 70.9538 26.8634 71.0097 24.9593 70.7505C21.1852 70.2367 18.4334 69.1351 16.446 67.3423C16.0914 67.0224 15.7662 66.7608 15.7235 66.7608C15.6806 66.7608 15.567 66.8886 15.471 67.0449ZM37.4735 75.607C36.9096 76.4788 36.7692 77.8155 37.1393 78.7902C37.9287 80.8695 40.9987 82.7695 44.947 83.6223C47.4813 84.1697 52.1681 84.2006 54.6851 83.6865C59.6171 82.6794 62.742 80.5488 63.0855 77.9592C63.1875 77.1906 62.7929 75.6606 62.4597 75.5328C62.3986 75.5093 62.117 75.7218 61.8339 76.0049C60.8134 77.0254 59.0559 78.0264 57.2171 78.6344C54.7584 79.4473 51.733 79.7888 48.5476 79.6129C43.946 79.3588 40.491 78.1588 38.2763 76.0453C37.6046 75.4043 37.6046 75.4043 37.4735 75.607Z" fill="white"/>
</svg>
