
<svg width="100" height="100" viewBox="0 0 100 100" fill="none" xmlns="http://www.w3.org/2000/svg">
<path fill-rule="evenodd" clip-rule="evenodd" d="M34.8732 23.3658C26.8967 27.967 20.2239 31.8621 20.0447 32.0217C19.3138 32.6731 19.3439 31.8995 19.3439 50.0342C19.3439 68.1689 19.3138 67.3961 20.0447 68.046C20.2239 68.2053 26.8674 72.0851 34.8082 76.6677C49.1182 84.9261 49.2529 85 49.9989 85C50.7448 85 50.8798 84.926 65.1895 76.6684C73.1303 72.0859 79.7738 68.2062 79.953 68.0467C80.6839 67.3954 80.6538 68.1689 80.6538 50.0342C80.6538 31.8995 80.6839 32.6739 79.953 32.021C79.7738 31.861 73.101 27.9659 65.1245 23.3651C51.7545 15.6535 50.573 15 49.9989 15C49.4249 15 48.2436 15.6533 34.8732 23.3658ZM33.3415 41.5989C33.5837 41.7014 33.8941 41.9113 34.0312 42.0654C34.1685 42.2194 35.0451 44.1758 35.9794 46.413C36.9137 48.6501 37.7477 50.5641 37.8325 50.6663C37.9174 50.7686 38.0415 50.8185 38.1082 50.7773C38.1749 50.7361 38.2296 48.9792 38.2296 46.8731C38.2296 43.3356 38.2501 43.0037 38.4987 42.5164C38.6876 42.1462 38.9556 41.8979 39.397 41.6842C40.3933 41.2019 41.3624 41.4803 41.9306 42.4121C42.1858 42.8309 42.1973 43.1533 42.1976 49.9658C42.1979 56.4711 42.1773 57.1223 41.9585 57.5514C41.5099 58.4312 41.1436 58.582 39.3312 58.6328C37.9053 58.6727 37.6483 58.6443 37.1523 58.3911C36.4602 58.038 36.4023 57.9272 34.4018 53.1134C33.5571 51.0811 32.8035 49.342 32.7269 49.2488C32.6502 49.1556 32.5329 49.1131 32.4663 49.1543C32.3995 49.1954 32.3449 50.9971 32.3449 53.1579C32.3449 56.72 32.3212 57.1304 32.0916 57.5588C31.694 58.3001 31.2223 58.5778 30.3605 58.5778C29.4928 58.5778 28.9894 58.2819 28.614 57.5514C28.3912 57.118 28.3755 56.5317 28.4088 49.8731C28.4438 42.8261 28.451 42.6554 28.728 42.2778C29.2327 41.59 29.7848 41.4129 31.4255 41.4128C32.3643 41.4126 33.0613 41.4803 33.3415 41.5989ZM57.4718 41.6738C57.8982 41.8673 58.1085 42.0832 58.3436 42.5691C58.7039 43.3133 58.6622 43.9251 58.2075 44.5635C57.6505 45.3458 57.4565 45.3812 53.7281 45.3812C51.2654 45.3812 50.282 45.4265 50.1631 45.5455C49.931 45.7776 49.937 48.7177 50.1699 48.9107C50.2679 48.9919 51.3445 49.0721 52.692 49.0986C55.2582 49.1489 55.414 49.1944 56.0803 50.0869C56.4657 50.6031 56.4657 51.655 56.0803 52.1712C55.414 53.0637 55.2582 53.1092 52.692 53.1595C51.399 53.1848 50.2698 53.2646 50.1829 53.3366C50.0818 53.4204 50.0079 54.152 49.9776 55.3676C49.9363 57.0293 49.895 57.3153 49.6482 57.6455C49.1423 58.3227 48.6637 58.5875 47.9461 58.5875C47.2283 58.5875 46.7497 58.3225 46.2439 57.6454C45.969 57.2774 45.9606 57.0898 45.9207 50.4007C45.8981 46.6239 45.9159 43.3354 45.9603 43.0929C46.0609 42.5432 46.6368 41.8444 47.1865 41.6051C47.5062 41.4657 48.6931 41.4226 52.2569 41.4209C56.5082 41.4187 56.9583 41.4406 57.4718 41.6738ZM71.7487 41.6523C72.751 42.1633 73.1239 43.3562 72.6014 44.3803C72.1984 45.1703 71.669 45.3812 70.0886 45.3812C69.2707 45.3812 68.7426 45.441 68.6382 45.5455C68.5157 45.6679 68.4739 47.1559 68.4737 51.3959C68.4735 57.6533 68.4712 57.6714 67.6152 58.2991C67.0891 58.6849 65.89 58.6849 65.364 58.2991C64.5079 57.6714 64.5056 57.6533 64.5055 51.3959C64.5052 47.1559 64.4635 45.6679 64.341 45.5455C64.2362 45.4406 63.7037 45.3811 62.8698 45.381C61.3378 45.3808 60.7695 45.1632 60.3686 44.4233C60.0455 43.8267 60.1051 42.7868 60.4928 42.2577C61.0977 41.4324 61.2358 41.4129 66.4896 41.4129C70.7795 41.4129 71.3284 41.438 71.7487 41.6523Z" fill="white"/>
</svg>
